<mxfile host="Electron" modified="2024-05-23T12:26:40.528Z" agent="Mozilla/5.0 (Windows NT 10.0; Win64; x64) AppleWebKit/537.36 (KHTML, like Gecko) draw.io/21.6.1 Chrome/112.0.5615.204 Electron/24.6.1 Safari/537.36" etag="FlnApJ8xTD7FbLqtP6uS" version="21.6.1" type="device">
  <diagram name="Página-1" id="SF4eTABMtbXogQxIixcL">
    <mxGraphModel dx="2025" dy="2020" grid="1" gridSize="10" guides="1" tooltips="1" connect="1" arrows="1" fold="1" page="1" pageScale="1" pageWidth="1169" pageHeight="827" math="0" shadow="0">
      <root>
        <mxCell id="0" />
        <mxCell id="1" parent="0" />
        <mxCell id="Mzv_jX6EuulgTvMQXwPz-2" value="Profesor" style="shape=umlActor;verticalLabelPosition=bottom;verticalAlign=top;html=1;outlineConnect=0;" vertex="1" parent="1">
          <mxGeometry x="80" y="40" width="30" height="60" as="geometry" />
        </mxCell>
        <mxCell id="Mzv_jX6EuulgTvMQXwPz-5" value="Alumno" style="shape=umlActor;verticalLabelPosition=bottom;verticalAlign=top;html=1;outlineConnect=0;" vertex="1" parent="1">
          <mxGeometry x="80" y="150" width="30" height="60" as="geometry" />
        </mxCell>
        <mxCell id="Mzv_jX6EuulgTvMQXwPz-7" value="darAltaAsignatura" style="ellipse;whiteSpace=wrap;html=1;" vertex="1" parent="1">
          <mxGeometry x="240" y="-60" width="140" height="70" as="geometry" />
        </mxCell>
        <mxCell id="Mzv_jX6EuulgTvMQXwPz-8" value="introducirNotas" style="ellipse;whiteSpace=wrap;html=1;" vertex="1" parent="1">
          <mxGeometry x="240" y="40" width="140" height="70" as="geometry" />
        </mxCell>
        <mxCell id="Mzv_jX6EuulgTvMQXwPz-9" value="avisarAlumnos" style="ellipse;whiteSpace=wrap;html=1;" vertex="1" parent="1">
          <mxGeometry x="445" y="40" width="140" height="70" as="geometry" />
        </mxCell>
        <mxCell id="Mzv_jX6EuulgTvMQXwPz-11" value="consultarNotas" style="ellipse;whiteSpace=wrap;html=1;" vertex="1" parent="1">
          <mxGeometry x="240" y="140" width="140" height="70" as="geometry" />
        </mxCell>
        <mxCell id="Mzv_jX6EuulgTvMQXwPz-12" value="SolicitarTutoria" style="ellipse;whiteSpace=wrap;html=1;" vertex="1" parent="1">
          <mxGeometry x="445" y="140" width="140" height="70" as="geometry" />
        </mxCell>
        <mxCell id="Mzv_jX6EuulgTvMQXwPz-13" value="solicitarCambio" style="ellipse;whiteSpace=wrap;html=1;" vertex="1" parent="1">
          <mxGeometry x="240" y="360" width="140" height="70" as="geometry" />
        </mxCell>
        <mxCell id="Mzv_jX6EuulgTvMQXwPz-14" value="publicitarCambios" style="ellipse;whiteSpace=wrap;html=1;" vertex="1" parent="1">
          <mxGeometry x="240" y="240" width="140" height="70" as="geometry" />
        </mxCell>
        <mxCell id="Mzv_jX6EuulgTvMQXwPz-15" value="" style="endArrow=none;html=1;rounded=0;exitX=1;exitY=0.3333333333333333;exitDx=0;exitDy=0;exitPerimeter=0;entryX=0;entryY=0.5;entryDx=0;entryDy=0;" edge="1" parent="1" source="Mzv_jX6EuulgTvMQXwPz-2" target="Mzv_jX6EuulgTvMQXwPz-7">
          <mxGeometry width="50" height="50" relative="1" as="geometry">
            <mxPoint x="530" y="-80" as="sourcePoint" />
            <mxPoint x="580" y="-130" as="targetPoint" />
          </mxGeometry>
        </mxCell>
        <mxCell id="Mzv_jX6EuulgTvMQXwPz-16" value="" style="endArrow=none;html=1;rounded=0;exitX=1;exitY=0.3333333333333333;exitDx=0;exitDy=0;exitPerimeter=0;entryX=0;entryY=0.5;entryDx=0;entryDy=0;" edge="1" parent="1" source="Mzv_jX6EuulgTvMQXwPz-2" target="Mzv_jX6EuulgTvMQXwPz-8">
          <mxGeometry width="50" height="50" relative="1" as="geometry">
            <mxPoint x="120" y="70" as="sourcePoint" />
            <mxPoint x="250" y="-35" as="targetPoint" />
          </mxGeometry>
        </mxCell>
        <mxCell id="Mzv_jX6EuulgTvMQXwPz-17" value="" style="endArrow=none;html=1;rounded=0;exitX=1;exitY=0.3333333333333333;exitDx=0;exitDy=0;exitPerimeter=0;entryX=0;entryY=0.5;entryDx=0;entryDy=0;" edge="1" parent="1" source="Mzv_jX6EuulgTvMQXwPz-5" target="Mzv_jX6EuulgTvMQXwPz-11">
          <mxGeometry width="50" height="50" relative="1" as="geometry">
            <mxPoint x="120" y="185" as="sourcePoint" />
            <mxPoint x="250" y="80" as="targetPoint" />
          </mxGeometry>
        </mxCell>
        <mxCell id="Mzv_jX6EuulgTvMQXwPz-18" value="" style="endArrow=none;html=1;rounded=0;entryX=0;entryY=0.5;entryDx=0;entryDy=0;" edge="1" parent="1" target="Mzv_jX6EuulgTvMQXwPz-14">
          <mxGeometry width="50" height="50" relative="1" as="geometry">
            <mxPoint x="110" y="170" as="sourcePoint" />
            <mxPoint x="250" y="200" as="targetPoint" />
          </mxGeometry>
        </mxCell>
        <mxCell id="Mzv_jX6EuulgTvMQXwPz-19" value="" style="endArrow=none;html=1;rounded=0;entryX=0;entryY=0.5;entryDx=0;entryDy=0;exitX=1;exitY=0.3333333333333333;exitDx=0;exitDy=0;exitPerimeter=0;" edge="1" parent="1" source="Mzv_jX6EuulgTvMQXwPz-5" target="Mzv_jX6EuulgTvMQXwPz-13">
          <mxGeometry width="50" height="50" relative="1" as="geometry">
            <mxPoint x="120" y="180" as="sourcePoint" />
            <mxPoint x="250" y="285" as="targetPoint" />
          </mxGeometry>
        </mxCell>
        <mxCell id="Mzv_jX6EuulgTvMQXwPz-20" value="&amp;lt;&amp;lt;extend&amp;gt;&amp;gt;" style="html=1;verticalAlign=bottom;labelBackgroundColor=none;endArrow=open;endFill=0;dashed=1;rounded=0;exitX=0;exitY=0.5;exitDx=0;exitDy=0;entryX=1;entryY=0.5;entryDx=0;entryDy=0;" edge="1" parent="1" source="Mzv_jX6EuulgTvMQXwPz-23" target="Mzv_jX6EuulgTvMQXwPz-22">
          <mxGeometry width="160" relative="1" as="geometry">
            <mxPoint x="490" y="20" as="sourcePoint" />
            <mxPoint x="650" y="20" as="targetPoint" />
          </mxGeometry>
        </mxCell>
        <mxCell id="Mzv_jX6EuulgTvMQXwPz-21" value="&amp;lt;&amp;lt;extend&amp;gt;&amp;gt;" style="html=1;verticalAlign=bottom;labelBackgroundColor=none;endArrow=open;endFill=0;dashed=1;rounded=0;exitX=0;exitY=0.5;exitDx=0;exitDy=0;entryX=1;entryY=0.5;entryDx=0;entryDy=0;" edge="1" parent="1" source="Mzv_jX6EuulgTvMQXwPz-12" target="Mzv_jX6EuulgTvMQXwPz-11">
          <mxGeometry width="160" relative="1" as="geometry">
            <mxPoint x="455" y="85" as="sourcePoint" />
            <mxPoint x="390" y="85" as="targetPoint" />
          </mxGeometry>
        </mxCell>
        <mxCell id="Mzv_jX6EuulgTvMQXwPz-22" value="evaluarActividades" style="ellipse;whiteSpace=wrap;html=1;" vertex="1" parent="1">
          <mxGeometry x="250" y="-160" width="140" height="70" as="geometry" />
        </mxCell>
        <mxCell id="Mzv_jX6EuulgTvMQXwPz-23" value="almacenarResultados" style="ellipse;whiteSpace=wrap;html=1;" vertex="1" parent="1">
          <mxGeometry x="445" y="-160" width="140" height="70" as="geometry" />
        </mxCell>
        <mxCell id="Mzv_jX6EuulgTvMQXwPz-24" value="" style="endArrow=none;html=1;rounded=0;exitX=1;exitY=0.3333333333333333;exitDx=0;exitDy=0;exitPerimeter=0;entryX=0;entryY=0.5;entryDx=0;entryDy=0;" edge="1" parent="1" source="Mzv_jX6EuulgTvMQXwPz-2" target="Mzv_jX6EuulgTvMQXwPz-22">
          <mxGeometry width="50" height="50" relative="1" as="geometry">
            <mxPoint x="120" y="70" as="sourcePoint" />
            <mxPoint x="250" y="-15" as="targetPoint" />
          </mxGeometry>
        </mxCell>
        <mxCell id="Mzv_jX6EuulgTvMQXwPz-25" value="&amp;lt;&amp;lt;include&amp;gt;&amp;gt;" style="html=1;verticalAlign=bottom;labelBackgroundColor=none;endArrow=open;endFill=0;dashed=1;rounded=0;exitX=1;exitY=0.5;exitDx=0;exitDy=0;entryX=0;entryY=0.5;entryDx=0;entryDy=0;" edge="1" parent="1" source="Mzv_jX6EuulgTvMQXwPz-8" target="Mzv_jX6EuulgTvMQXwPz-9">
          <mxGeometry width="160" relative="1" as="geometry">
            <mxPoint x="480" y="-120" as="sourcePoint" />
            <mxPoint x="640" y="-120" as="targetPoint" />
          </mxGeometry>
        </mxCell>
        <mxCell id="Mzv_jX6EuulgTvMQXwPz-26" value="" style="whiteSpace=wrap;html=1;fillColor=none;" vertex="1" parent="1">
          <mxGeometry x="180" y="-180" width="460" height="620" as="geometry" />
        </mxCell>
        <mxCell id="Mzv_jX6EuulgTvMQXwPz-28" value="Sistema de evaluación y cambio de grupos" style="text;html=1;align=center;verticalAlign=middle;resizable=0;points=[];autosize=1;strokeColor=none;fillColor=none;" vertex="1" parent="1">
          <mxGeometry x="390" y="-210" width="250" height="30" as="geometry" />
        </mxCell>
      </root>
    </mxGraphModel>
  </diagram>
</mxfile>
